/* XPM */
/* Made with 'banner' http://www-noah-org/banner */
static char * banner_xpm[] = {
"32 32 8 1",
"   c None",    /* transparent */
".  c #FFFFFF", /* white */
"#  c #000000", /* black */
"-  c #333300", /* CRT black */
"R  c #FF4444", /* red */
"G  c #44FF44", /* green */
"B  c #4444FF", /* blue */
"Y  c #FFFF44", /* yellow */

"                                ",
"  ###########################   ",
" #---------------------------#  ",
"#-----------------------------# ",
"#-Y-----YYY----YY----Y---Y----# ",
"#-Y----Y---Y--Y--Y--Y-Y--Y----# ",
"#-Y----Y---Y-Y------Y-Y--Y----# ",
"#-Y----Y---Y-Y------Y-Y--Y----# ",
"#-Y----Y---Y-Y-----Y---Y-Y----# ",
"#-Y----Y---Y-Y-----Y---Y-Y----# ",
"#-Y----Y---Y-Y-----YYYYY-Y----# ",
"#-Y----Y---Y--Y--Y-Y---Y-Y----# ",
"#-YYYY--YYY----YY--Y---Y-YYYY-# ",
"#-----------------------------# ",
"#---Y---Y--YYY---YYYY-YYYYY---# ",
"#---Y---Y-Y---Y-Y-------Y-----# ",
"#---Y---Y-Y---Y-Y-------Y-----# ",
"#---Y---Y-Y---Y-Y-------Y-----# ",
"#---YYYYY-Y---Y--YYY----Y-----# ",
"#---Y---Y-Y---Y-----Y---Y-----# ",
"#---Y---Y-Y---Y-----Y---Y-----# ",
"#---Y---Y-Y---Y-----Y---Y-----# ",
"#---Y---Y--YYY--YYYY----Y-----# ",
"#-----------------------------# ",
" #---------------------------#  ",
"  ###########################   ",
"     #...............RR..#      ",
"    #...#.#.#.#.#.#.#.#...#     ",
"   #..#.#.#.#.#.#.#.#.###..#    ",
"  ##...#.############..#...##   ",
"  ##.......................##   ",
"   #########################    ",
};
