/* XPM */
/* Made with 'banner' http://www-noah-org/banner */
static char * banner_xpm[] = {
"32 32 8 1",
"   c None",
"-  c #333300",
"#  c #000000",
".  c #FFFFFF",
"R  c #FF4444",
"G  c #44FF44",
"B  c #4444FF",
"Y  c #FFFF44",

"                                ",
"  ###########################   ",
" #---------------------------#  ",
"#-----------------------------# ",
"#-----------------------------# ",
"#-----------------------------# ",
"#-----------------------------# ",
"#--Y----Y--YYY----Y---Y----Y--# ",
"#--YY---Y-Y---Y--Y-Y--Y----Y--# ",
"#--Y-Y--Y-Y---Y-Y---Y-Y----Y--# ",
"#--Y--Y-Y-Y---Y-YYYYY-YYYYYY--# ",
"#--Y---YY-Y---Y-Y---Y-Y----Y--# ",
"#--Y----Y--YYY--Y---Y-Y----Y--# ",
"#-----------------------------# ",
"#-----------------------------# ",
"#------YYY--YYYYY---YYYY------# ",
"#-----Y---Y-Y----Y-Y----Y-----# ",
"#-----Y---Y-Y----Y-Y----------# ",
"#-----Y---Y-YYYYY--Y--YYY-----# ",
"#-----Y---Y-Y---Y--Y----Y-----# ",
"#------YYY--Y----Y--YYYY------# ",
"#-----------------------------# ",
"#-----------------------------# ",
"#-----------------------------# ",
" #---------------------------#  ",
"  ###########################   ",
"     #...............RR..#      ",
"    #...#.#.#.#.#.#.#.#...#     ",
"   #..#.#.#.#.#.#.#.#.###..#    ",
"  ##...#.############..#...##   ",
"  ##.......................##   ",
"   #########################    ",
};
